<?xml version="1.0"?>
<svg xmlns="http://www.w3.org/2000/svg" xmlns:xlink="http://www.w3.org/1999/xlink" data-noselect="" viewBox="0 0 200 200" width="400" height="400" preserveAspectRatio="none" version="1.1"><defs><filter id="filter_shadow_shape_6M4cQaqIUC" width="1000%" height="1000%"><feGaussianBlur in="SourceAlpha" stdDeviation="5"/> <feOffset dx="12" dy="12" result="offsetblur"/><feComponentTransfer><feFuncA type="linear" slope="0.4"/></feComponentTransfer><feMerge><feMergeNode/><feMergeNode in="SourceGraphic"/></feMerge></filter></defs> <g id="background" data-noselect=""><!----> <!----></g> <g id="shape_6M4cQaqIUC" transform="translate(30.285996045402335,17.49954595798024) rotate(0,83.5,83.5) scale(1,1)" filter="url(#filter_shadow_shape_6M4cQaqIUC)" style="cursor: move; opacity: 1;"><g><svg xmlns="http://www.w3.org/2000/svg" xmlns:xlink="http://www.w3.org/1999/xlink" version="1.1" id="&#x56FE;&#x5C42;_1" x="0px" y="0px" viewBox="0.05000000447034836 0 4.899999618530273 5.869999885559082" enable-background="new 0 0 5 5.87" xml:space="preserve" width="139.40373973561287" height="167" class="style-removed" preserveAspectRatio="none" data-parent="shape_6M4cQaqIUC">
<g>
	<polygon fill="rgb(24, 144, 255)" points="4.58,3.87 2.6,5.02 0.79,3.98 0.79,1.9 2.59,0.86 4.58,2 4.95,1.36 2.59,0 0.05,1.47 0.05,4.41    2.6,5.87 4.95,4.51  "/>
	<polygon fill="rgb(24, 144, 255)" points="2.59,3.67 1.76,3.19 1.39,3.83 2.59,4.53 3.98,3.73 3.98,2.13 2.59,1.33 1.39,2.02 1.76,2.66    2.59,2.18 3.24,2.55 3.24,3.3  "/>
</g>
</svg></g></g><g id="shape_rOXgBwaWGU" transform="translate(200.48002950619502,260.45653841431) rotate(0,270.7037529559,121.4904086) scale(1,1)" filter="" style="cursor: move; opacity: 1;"><g><svg xmlns="http://www.w3.org/2000/svg" xmlns:xlink="http://www.w3.org/1999/xlink" version="1.1" width="398.03999999999996" height="241.51436" viewBox="0 0 398.03999999999996 241.51436" data-parent="shape_rOXgBwaWGU"><g data-width="237.17850995573352" transform="translate(80.43074502213324, 0)"><path d="M55.93-10.32L55.93-3.12Q55.61-4.08 54.69-4.40Q53.77-4.72 53.05-4.72L53.05-4.72L3.04-4.72L3.04-40.09L1.60-41.69L55.93-41.69L55.93-34.49Q55.61-35.53 54.69-35.85Q53.77-36.17 53.05-36.17L53.05-36.17L13.44-36.17L13.44-10.32L55.93-10.32Z" transform="translate(0 148.75718) " fill="#FFFFFF" stroke="#FFFFFF" stroke-linecap="square" stroke-linejoin="square" stroke-width="0.133" data-glyph-w="58.53443748893338" data-glyph-h="80.02" data-glyph-ascender="68.73718" data-glyph-descender="-11.28282"/><path d="M3.04-4.72L3.04-40.09L1.60-41.69L59.45-41.69L59.45-4.72L3.04-4.72ZM48.97-36.17L13.52-36.17L13.52-10.32L48.97-10.32L48.97-36.17Z" transform="translate(58.53443748893338 148.75718) " fill="#FFFFFF" stroke="#FFFFFF" stroke-linecap="square" stroke-linejoin="square" stroke-width="0.133" data-glyph-w="62.055317488933376" data-glyph-h="80.02" data-glyph-ascender="68.73718" data-glyph-descender="-11.28282"/><path d="M3.04-4.72L3.04-40.09L1.60-41.69L56.01-41.69L56.01-19.60Q55.53-20.57 54.69-20.93Q53.85-21.29 53.05-21.29L53.05-21.29L42.17-21.29L56.89-4.72L44.89-4.72L30.89-21.29L13.52-21.29L13.52-4.72L3.04-4.72ZM13.52-36.09L13.52-26.81L45.53-26.81L45.53-36.09L13.52-36.09Z" transform="translate(120.58975497786676 148.75718) " fill="#FFFFFF" stroke="#FFFFFF" stroke-linecap="square" stroke-linejoin="square" stroke-width="0.133" data-glyph-w="59.49467748893338" data-glyph-h="80.02" data-glyph-ascender="68.73718" data-glyph-descender="-11.28282"/><path d="M22.57-4.72L22.57-36.09L1.60-36.09L1.60-43.05L4.08-41.69L54.49-41.69L54.49-34.49Q54.09-35.53 53.21-35.81Q52.33-36.09 51.61-36.09L51.61-36.09L32.97-36.09L32.97-4.72L22.57-4.72Z" transform="translate(180.08443246680014 148.75718) " fill="#FFFFFF" stroke="#FFFFFF" stroke-linecap="square" stroke-linejoin="square" stroke-width="0.133" data-glyph-w="57.09407748893337" data-glyph-h="80.02" data-glyph-ascender="68.73718" data-glyph-descender="-11.28282"/></g></svg></g></g>  <!----></svg>
